<?xml version="1.0" encoding="utf-8" standalone="no"?>
<!DOCTYPE svg PUBLIC "-//W3C//DTD SVG 1.1//EN"
  "http://www.w3.org/Graphics/SVG/1.1/DTD/svg11.dtd">
<!-- Created with matplotlib (https://matplotlib.org/) -->
<svg height="360pt" version="1.1" viewBox="0 0 720 360" width="720pt" xmlns="http://www.w3.org/2000/svg" xmlns:xlink="http://www.w3.org/1999/xlink">
 <metadata>
  <rdf:RDF xmlns:cc="http://creativecommons.org/ns#" xmlns:dc="http://purl.org/dc/elements/1.1/" xmlns:rdf="http://www.w3.org/1999/02/22-rdf-syntax-ns#">
   <cc:Work>
    <dc:type rdf:resource="http://purl.org/dc/dcmitype/StillImage"/>
    <dc:date>2021-06-09T10:36:16.760095</dc:date>
    <dc:format>image/svg+xml</dc:format>
    <dc:creator>
     <cc:Agent>
      <dc:title>Matplotlib v3.3.4, https://matplotlib.org/</dc:title>
     </cc:Agent>
    </dc:creator>
   </cc:Work>
  </rdf:RDF>
 </metadata>
 <defs>
  <style type="text/css">*{stroke-linecap:butt;stroke-linejoin:round;}</style>
 </defs>
 <g id="figure_1">
  <g id="patch_1">
   <path d="M 0 360 
L 720 360 
L 720 0 
L 0 0 
z
" style="fill:#ffffff;"/>
  </g>
  <g id="axes_1">
   <g id="patch_2">
    <path d="M 90 320.4 
L 343.636364 320.4 
L 343.636364 43.2 
L 90 43.2 
z
" style="fill:#ffffff;"/>
   </g>
   <g id="matplotlib.axis_1">
    <g id="xtick_1">
     <g id="line2d_1">
      <defs>
       <path d="M 0 0 
L 0 3.5 
" id="m3dd6ddd9a1" style="stroke:#000000;stroke-width:0.8;"/>
      </defs>
      <g>
       <use style="stroke:#000000;stroke-width:0.8;" x="90" xlink:href="#m3dd6ddd9a1" y="320.4"/>
      </g>
     </g>
     <g id="text_1">
      <!-- 0.0 -->
      <g transform="translate(82.048438 334.998438)scale(0.1 -0.1)">
       <defs>
        <path d="M 31.78125 66.40625 
Q 24.171875 66.40625 20.328125 58.90625 
Q 16.5 51.421875 16.5 36.375 
Q 16.5 21.390625 20.328125 13.890625 
Q 24.171875 6.390625 31.78125 6.390625 
Q 39.453125 6.390625 43.28125 13.890625 
Q 47.125 21.390625 47.125 36.375 
Q 47.125 51.421875 43.28125 58.90625 
Q 39.453125 66.40625 31.78125 66.40625 
z
M 31.78125 74.21875 
Q 44.046875 74.21875 50.515625 64.515625 
Q 56.984375 54.828125 56.984375 36.375 
Q 56.984375 17.96875 50.515625 8.265625 
Q 44.046875 -1.421875 31.78125 -1.421875 
Q 19.53125 -1.421875 13.0625 8.265625 
Q 6.59375 17.96875 6.59375 36.375 
Q 6.59375 54.828125 13.0625 64.515625 
Q 19.53125 74.21875 31.78125 74.21875 
z
" id="DejaVuSans-48"/>
        <path d="M 10.6875 12.40625 
L 21 12.40625 
L 21 0 
L 10.6875 0 
z
" id="DejaVuSans-46"/>
       </defs>
       <use xlink:href="#DejaVuSans-48"/>
       <use x="63.623047" xlink:href="#DejaVuSans-46"/>
       <use x="95.410156" xlink:href="#DejaVuSans-48"/>
      </g>
     </g>
    </g>
    <g id="xtick_2">
     <g id="line2d_2">
      <g>
       <use style="stroke:#000000;stroke-width:0.8;" x="140.727273" xlink:href="#m3dd6ddd9a1" y="320.4"/>
      </g>
     </g>
     <g id="text_2">
      <!-- 0.2 -->
      <g transform="translate(132.77571 334.998438)scale(0.1 -0.1)">
       <defs>
        <path d="M 19.1875 8.296875 
L 53.609375 8.296875 
L 53.609375 0 
L 7.328125 0 
L 7.328125 8.296875 
Q 12.9375 14.109375 22.625 23.890625 
Q 32.328125 33.6875 34.8125 36.53125 
Q 39.546875 41.84375 41.421875 45.53125 
Q 43.3125 49.21875 43.3125 52.78125 
Q 43.3125 58.59375 39.234375 62.25 
Q 35.15625 65.921875 28.609375 65.921875 
Q 23.96875 65.921875 18.8125 64.3125 
Q 13.671875 62.703125 7.8125 59.421875 
L 7.8125 69.390625 
Q 13.765625 71.78125 18.9375 73 
Q 24.125 74.21875 28.421875 74.21875 
Q 39.75 74.21875 46.484375 68.546875 
Q 53.21875 62.890625 53.21875 53.421875 
Q 53.21875 48.921875 51.53125 44.890625 
Q 49.859375 40.875 45.40625 35.40625 
Q 44.1875 33.984375 37.640625 27.21875 
Q 31.109375 20.453125 19.1875 8.296875 
z
" id="DejaVuSans-50"/>
       </defs>
       <use xlink:href="#DejaVuSans-48"/>
       <use x="63.623047" xlink:href="#DejaVuSans-46"/>
       <use x="95.410156" xlink:href="#DejaVuSans-50"/>
      </g>
     </g>
    </g>
    <g id="xtick_3">
     <g id="line2d_3">
      <g>
       <use style="stroke:#000000;stroke-width:0.8;" x="191.454545" xlink:href="#m3dd6ddd9a1" y="320.4"/>
      </g>
     </g>
     <g id="text_3">
      <!-- 0.4 -->
      <g transform="translate(183.502983 334.998438)scale(0.1 -0.1)">
       <defs>
        <path d="M 37.796875 64.3125 
L 12.890625 25.390625 
L 37.796875 25.390625 
z
M 35.203125 72.90625 
L 47.609375 72.90625 
L 47.609375 25.390625 
L 58.015625 25.390625 
L 58.015625 17.1875 
L 47.609375 17.1875 
L 47.609375 0 
L 37.796875 0 
L 37.796875 17.1875 
L 4.890625 17.1875 
L 4.890625 26.703125 
z
" id="DejaVuSans-52"/>
       </defs>
       <use xlink:href="#DejaVuSans-48"/>
       <use x="63.623047" xlink:href="#DejaVuSans-46"/>
       <use x="95.410156" xlink:href="#DejaVuSans-52"/>
      </g>
     </g>
    </g>
    <g id="xtick_4">
     <g id="line2d_4">
      <g>
       <use style="stroke:#000000;stroke-width:0.8;" x="242.181818" xlink:href="#m3dd6ddd9a1" y="320.4"/>
      </g>
     </g>
     <g id="text_4">
      <!-- 0.6 -->
      <g transform="translate(234.230256 334.998438)scale(0.1 -0.1)">
       <defs>
        <path d="M 33.015625 40.375 
Q 26.375 40.375 22.484375 35.828125 
Q 18.609375 31.296875 18.609375 23.390625 
Q 18.609375 15.53125 22.484375 10.953125 
Q 26.375 6.390625 33.015625 6.390625 
Q 39.65625 6.390625 43.53125 10.953125 
Q 47.40625 15.53125 47.40625 23.390625 
Q 47.40625 31.296875 43.53125 35.828125 
Q 39.65625 40.375 33.015625 40.375 
z
M 52.59375 71.296875 
L 52.59375 62.3125 
Q 48.875 64.0625 45.09375 64.984375 
Q 41.3125 65.921875 37.59375 65.921875 
Q 27.828125 65.921875 22.671875 59.328125 
Q 17.53125 52.734375 16.796875 39.40625 
Q 19.671875 43.65625 24.015625 45.921875 
Q 28.375 48.1875 33.59375 48.1875 
Q 44.578125 48.1875 50.953125 41.515625 
Q 57.328125 34.859375 57.328125 23.390625 
Q 57.328125 12.15625 50.6875 5.359375 
Q 44.046875 -1.421875 33.015625 -1.421875 
Q 20.359375 -1.421875 13.671875 8.265625 
Q 6.984375 17.96875 6.984375 36.375 
Q 6.984375 53.65625 15.1875 63.9375 
Q 23.390625 74.21875 37.203125 74.21875 
Q 40.921875 74.21875 44.703125 73.484375 
Q 48.484375 72.75 52.59375 71.296875 
z
" id="DejaVuSans-54"/>
       </defs>
       <use xlink:href="#DejaVuSans-48"/>
       <use x="63.623047" xlink:href="#DejaVuSans-46"/>
       <use x="95.410156" xlink:href="#DejaVuSans-54"/>
      </g>
     </g>
    </g>
    <g id="xtick_5">
     <g id="line2d_5">
      <g>
       <use style="stroke:#000000;stroke-width:0.8;" x="292.909091" xlink:href="#m3dd6ddd9a1" y="320.4"/>
      </g>
     </g>
     <g id="text_5">
      <!-- 0.8 -->
      <g transform="translate(284.957528 334.998438)scale(0.1 -0.1)">
       <defs>
        <path d="M 31.78125 34.625 
Q 24.75 34.625 20.71875 30.859375 
Q 16.703125 27.09375 16.703125 20.515625 
Q 16.703125 13.921875 20.71875 10.15625 
Q 24.75 6.390625 31.78125 6.390625 
Q 38.8125 6.390625 42.859375 10.171875 
Q 46.921875 13.96875 46.921875 20.515625 
Q 46.921875 27.09375 42.890625 30.859375 
Q 38.875 34.625 31.78125 34.625 
z
M 21.921875 38.8125 
Q 15.578125 40.375 12.03125 44.71875 
Q 8.5 49.078125 8.5 55.328125 
Q 8.5 64.0625 14.71875 69.140625 
Q 20.953125 74.21875 31.78125 74.21875 
Q 42.671875 74.21875 48.875 69.140625 
Q 55.078125 64.0625 55.078125 55.328125 
Q 55.078125 49.078125 51.53125 44.71875 
Q 48 40.375 41.703125 38.8125 
Q 48.828125 37.15625 52.796875 32.3125 
Q 56.78125 27.484375 56.78125 20.515625 
Q 56.78125 9.90625 50.3125 4.234375 
Q 43.84375 -1.421875 31.78125 -1.421875 
Q 19.734375 -1.421875 13.25 4.234375 
Q 6.78125 9.90625 6.78125 20.515625 
Q 6.78125 27.484375 10.78125 32.3125 
Q 14.796875 37.15625 21.921875 38.8125 
z
M 18.3125 54.390625 
Q 18.3125 48.734375 21.84375 45.5625 
Q 25.390625 42.390625 31.78125 42.390625 
Q 38.140625 42.390625 41.71875 45.5625 
Q 45.3125 48.734375 45.3125 54.390625 
Q 45.3125 60.0625 41.71875 63.234375 
Q 38.140625 66.40625 31.78125 66.40625 
Q 25.390625 66.40625 21.84375 63.234375 
Q 18.3125 60.0625 18.3125 54.390625 
z
" id="DejaVuSans-56"/>
       </defs>
       <use xlink:href="#DejaVuSans-48"/>
       <use x="63.623047" xlink:href="#DejaVuSans-46"/>
       <use x="95.410156" xlink:href="#DejaVuSans-56"/>
      </g>
     </g>
    </g>
    <g id="xtick_6">
     <g id="line2d_6">
      <g>
       <use style="stroke:#000000;stroke-width:0.8;" x="343.636364" xlink:href="#m3dd6ddd9a1" y="320.4"/>
      </g>
     </g>
     <g id="text_6">
      <!-- 1.0 -->
      <g transform="translate(335.684801 334.998438)scale(0.1 -0.1)">
       <defs>
        <path d="M 12.40625 8.296875 
L 28.515625 8.296875 
L 28.515625 63.921875 
L 10.984375 60.40625 
L 10.984375 69.390625 
L 28.421875 72.90625 
L 38.28125 72.90625 
L 38.28125 8.296875 
L 54.390625 8.296875 
L 54.390625 0 
L 12.40625 0 
z
" id="DejaVuSans-49"/>
       </defs>
       <use xlink:href="#DejaVuSans-49"/>
       <use x="63.623047" xlink:href="#DejaVuSans-46"/>
       <use x="95.410156" xlink:href="#DejaVuSans-48"/>
      </g>
     </g>
    </g>
   </g>
   <g id="matplotlib.axis_2">
    <g id="ytick_1">
     <g id="line2d_7">
      <defs>
       <path d="M 0 0 
L -3.5 0 
" id="m8a7e8ebb68" style="stroke:#000000;stroke-width:0.8;"/>
      </defs>
      <g>
       <use style="stroke:#000000;stroke-width:0.8;" x="90" xlink:href="#m8a7e8ebb68" y="320.4"/>
      </g>
     </g>
     <g id="text_7">
      <!-- 0.0 -->
      <g transform="translate(67.096875 324.199219)scale(0.1 -0.1)">
       <use xlink:href="#DejaVuSans-48"/>
       <use x="63.623047" xlink:href="#DejaVuSans-46"/>
       <use x="95.410156" xlink:href="#DejaVuSans-48"/>
      </g>
     </g>
    </g>
    <g id="ytick_2">
     <g id="line2d_8">
      <g>
       <use style="stroke:#000000;stroke-width:0.8;" x="90" xlink:href="#m8a7e8ebb68" y="264.96"/>
      </g>
     </g>
     <g id="text_8">
      <!-- 0.2 -->
      <g transform="translate(67.096875 268.759219)scale(0.1 -0.1)">
       <use xlink:href="#DejaVuSans-48"/>
       <use x="63.623047" xlink:href="#DejaVuSans-46"/>
       <use x="95.410156" xlink:href="#DejaVuSans-50"/>
      </g>
     </g>
    </g>
    <g id="ytick_3">
     <g id="line2d_9">
      <g>
       <use style="stroke:#000000;stroke-width:0.8;" x="90" xlink:href="#m8a7e8ebb68" y="209.52"/>
      </g>
     </g>
     <g id="text_9">
      <!-- 0.4 -->
      <g transform="translate(67.096875 213.319219)scale(0.1 -0.1)">
       <use xlink:href="#DejaVuSans-48"/>
       <use x="63.623047" xlink:href="#DejaVuSans-46"/>
       <use x="95.410156" xlink:href="#DejaVuSans-52"/>
      </g>
     </g>
    </g>
    <g id="ytick_4">
     <g id="line2d_10">
      <g>
       <use style="stroke:#000000;stroke-width:0.8;" x="90" xlink:href="#m8a7e8ebb68" y="154.08"/>
      </g>
     </g>
     <g id="text_10">
      <!-- 0.6 -->
      <g transform="translate(67.096875 157.879219)scale(0.1 -0.1)">
       <use xlink:href="#DejaVuSans-48"/>
       <use x="63.623047" xlink:href="#DejaVuSans-46"/>
       <use x="95.410156" xlink:href="#DejaVuSans-54"/>
      </g>
     </g>
    </g>
    <g id="ytick_5">
     <g id="line2d_11">
      <g>
       <use style="stroke:#000000;stroke-width:0.8;" x="90" xlink:href="#m8a7e8ebb68" y="98.64"/>
      </g>
     </g>
     <g id="text_11">
      <!-- 0.8 -->
      <g transform="translate(67.096875 102.439219)scale(0.1 -0.1)">
       <use xlink:href="#DejaVuSans-48"/>
       <use x="63.623047" xlink:href="#DejaVuSans-46"/>
       <use x="95.410156" xlink:href="#DejaVuSans-56"/>
      </g>
     </g>
    </g>
    <g id="ytick_6">
     <g id="line2d_12">
      <g>
       <use style="stroke:#000000;stroke-width:0.8;" x="90" xlink:href="#m8a7e8ebb68" y="43.2"/>
      </g>
     </g>
     <g id="text_12">
      <!-- 1.0 -->
      <g transform="translate(67.096875 46.999219)scale(0.1 -0.1)">
       <use xlink:href="#DejaVuSans-49"/>
       <use x="63.623047" xlink:href="#DejaVuSans-46"/>
       <use x="95.410156" xlink:href="#DejaVuSans-48"/>
      </g>
     </g>
    </g>
   </g>
   <g id="LineCollection_1"/>
   <g id="LineCollection_2">
    <path clip-path="url(#p79b545f3ca)" d="M 221.842427 101.557895 
L 223.492823 102.472469 
L 224.052362 101.557895 
L 223.492823 101.086066 
L 221.842427 101.557895 
" style="fill:none;stroke:#471164;stroke-width:1.5;"/>
   </g>
   <g id="LineCollection_3">
    <path clip-path="url(#p79b545f3ca)" d="M 205.946823 116.147368 
L 210.143541 119.966357 
L 223.492823 122.353408 
L 234.696029 116.147368 
L 236.842105 112.585507 
L 239.663855 101.557895 
L 236.842105 96.087214 
L 226.007857 86.968421 
L 223.492823 86.326658 
L 215.514233 86.968421 
L 210.143541 88.413781 
L 200.69711 101.557895 
L 205.946823 116.147368 
" style="fill:none;stroke:#482173;stroke-width:1.5;"/>
   </g>
   <g id="LineCollection_4">
    <path clip-path="url(#p79b545f3ca)" d="M 194.921027 116.147368 
L 196.794258 119.245052 
L 209.606948 130.736842 
L 210.143541 131.06218 
L 223.492823 132.622599 
L 228.448657 130.736842 
L 236.842105 126.212744 
L 244.586178 116.147368 
L 248.083624 101.557895 
L 240.640562 86.968421 
L 236.842105 84.738837 
L 223.492823 81.377683 
L 210.143541 82.363834 
L 198.876273 86.968421 
L 196.794258 89.895297 
L 192.062342 101.557895 
L 194.921027 116.147368 
" style="fill:none;stroke:#472f7d;stroke-width:1.5;"/>
   </g>
   <g id="LineCollection_5">
    <path clip-path="url(#p79b545f3ca)" d="M 196.448023 130.736842 
L 196.794258 131.119406 
L 210.143541 139.189246 
L 223.492823 140.590842 
L 236.842105 135.635906 
L 242.397965 130.736842 
L 250.191388 120.475759 
L 252.258743 116.147368 
L 254.439315 101.557895 
L 250.191388 88.832454 
L 249.246371 86.968421 
L 236.842105 79.687474 
L 223.492823 76.428709 
L 210.143541 77.318872 
L 196.794258 82.52368 
L 190.738541 86.968421 
L 185.021122 101.557895 
L 187.650843 116.147368 
L 196.448023 130.736842 
" style="fill:none;stroke:#433e85;stroke-width:1.5;"/>
   </g>
   <g id="LineCollection_6">
    <path clip-path="url(#p79b545f3ca)" d="M 181.132504 116.147368 
L 183.444976 121.8465 
L 188.603064 130.736842 
L 196.794258 139.787491 
L 206.445281 145.326316 
L 210.143541 147.07892 
L 223.492823 148.179134 
L 232.658371 145.326316 
L 236.842105 143.812155 
L 250.191388 132.14136 
L 251.186477 130.736842 
L 258.089783 116.147368 
L 260.105751 101.557895 
L 255.388341 86.968421 
L 250.191388 82.17501 
L 236.842105 74.636112 
L 227.351806 72.378947 
L 223.492823 71.932716 
L 210.143541 72.32704 
L 209.840879 72.378947 
L 196.794258 77.177237 
L 183.454303 86.968421 
L 183.444976 86.99245 
L 179.305162 101.557895 
L 181.132504 116.147368 
" style="fill:none;stroke:#3e4c8a;stroke-width:1.5;"/>
   </g>
   <g id="LineCollection_7">
    <path clip-path="url(#p79b545f3ca)" d="M 181.42684 130.736842 
L 183.444976 134.052754 
L 193.63503 145.326316 
L 196.794258 148.07436 
L 210.143541 154.236489 
L 223.492823 155.210861 
L 236.842105 151.211361 
L 245.131624 145.326316 
L 250.191388 140.94692 
L 257.425142 130.736842 
L 263.54067 117.05717 
L 263.84538 116.147368 
L 265.335962 101.557895 
L 263.54067 94.287186 
L 261.226378 86.968421 
L 250.191388 76.790296 
L 242.222673 72.378947 
L 236.842105 70.978019 
L 223.492823 69.476809 
L 210.143541 69.83388 
L 196.794258 72.107518 
L 195.925463 72.378947 
L 183.444976 81.073006 
L 177.923505 86.968421 
L 173.971413 101.557895 
L 175.646094 116.147368 
L 181.42684 130.736842 
" style="fill:none;stroke:#38588c;stroke-width:1.5;"/>
   </g>
   <g id="LineCollection_8">
    <path clip-path="url(#p79b545f3ca)" d="M 168.838738 101.557895 
L 170.095694 115.550345 
L 170.159685 116.147368 
L 175.534411 130.736842 
L 183.444976 143.73435 
L 184.883937 145.326316 
L 196.794258 155.686471 
L 206.526003 159.915789 
L 210.143541 161.346788 
L 223.492823 162.173245 
L 231.733004 159.915789 
L 236.842105 158.433961 
L 250.191388 149.237404 
L 253.649216 145.326316 
L 263.54067 130.934398 
L 263.639365 130.736842 
L 268.519216 116.147368 
L 269.894702 101.557895 
L 266.399215 86.968421 
L 263.54067 83.323237 
L 251.402186 72.378947 
L 250.191388 71.883098 
L 236.842105 68.445416 
L 223.492823 67.020902 
L 210.143541 67.34072 
L 196.794258 69.460116 
L 187.451633 72.378947 
L 183.444976 75.170033 
L 172.394956 86.968421 
L 170.095694 95.771635 
L 168.838738 101.557895 
" style="fill:none;stroke:#32648e;stroke-width:1.5;"/>
   </g>
   <g id="LineCollection_9">
    <path clip-path="url(#p79b545f3ca)" d="M 169.707681 130.736842 
L 170.095694 131.612714 
L 177.980294 145.326316 
L 183.444976 152.40695 
L 192.335491 159.915789 
L 196.794258 163.182833 
L 210.143541 168.275486 
L 223.492823 168.995414 
L 236.842105 165.497149 
L 245.932424 159.915789 
L 250.191388 157.018255 
L 260.528336 145.326316 
L 263.54067 140.943415 
L 268.639678 130.736842 
L 273.193052 116.147368 
L 274.453442 101.557895 
L 271.135169 86.968421 
L 263.54067 77.284005 
L 258.100394 72.378947 
L 250.191388 69.140034 
L 236.842105 65.912812 
L 223.492823 64.564994 
L 210.143541 64.84756 
L 196.794258 66.812715 
L 183.444976 70.826101 
L 180.059301 72.378947 
L 170.095694 82.97787 
L 167.299513 86.968421 
L 164.240557 101.557895 
L 165.440918 116.147368 
L 169.707681 130.736842 
" style="fill:none;stroke:#2d708e;stroke-width:1.5;"/>
   </g>
   <g id="LineCollection_10">
    <path clip-path="url(#p79b545f3ca)" d="M 164.668496 130.736842 
L 170.095694 142.987807 
L 171.440213 145.326316 
L 182.595137 159.915789 
L 183.444976 160.84601 
L 196.794258 170.534481 
L 208.042766 174.505263 
L 210.143541 175.221559 
L 223.492823 175.853367 
L 228.896667 174.505263 
L 236.842105 172.519188 
L 250.191388 164.673547 
L 255.077827 159.915789 
L 263.54067 150.29934 
L 266.648044 145.326316 
L 273.63999 130.736842 
L 276.889952 119.697562 
L 277.768998 116.147368 
L 278.807667 101.557895 
L 276.889952 91.579532 
L 275.871123 86.968421 
L 264.575136 72.378947 
L 263.54067 71.789222 
L 250.191388 66.396969 
L 236.842105 63.380209 
L 223.492823 62.109087 
L 210.143541 62.3544 
L 196.794258 64.165314 
L 183.444976 67.880489 
L 173.636976 72.378947 
L 170.095694 76.146035 
L 162.512443 86.968421 
L 159.642375 101.557895 
L 160.731211 116.147368 
L 164.668496 130.736842 
" style="fill:none;stroke:#297a8e;stroke-width:1.5;"/>
   </g>
   <g id="LineCollection_11">
    <path clip-path="url(#p79b545f3ca)" d="M 156.063814 116.147368 
L 156.746411 119.240394 
L 159.62931 130.736842 
L 165.666527 145.326316 
L 170.095694 153.212531 
L 175.133911 159.915789 
L 183.444976 169.012944 
L 191.372916 174.505263 
L 196.794258 177.963183 
L 210.143541 182.322514 
L 223.492823 182.861558 
L 236.842105 179.692052 
L 246.282728 174.505263 
L 250.191388 172.254338 
L 262.863655 159.915789 
L 263.54067 159.146487 
L 272.176148 145.326316 
L 276.889952 134.982974 
L 278.464286 130.736842 
L 281.974515 116.147368 
L 282.927088 101.557895 
L 280.27979 86.968421 
L 276.889952 81.30122 
L 270.083441 72.378947 
L 263.54067 68.649066 
L 250.191388 63.653904 
L 236.842105 60.847605 
L 223.492823 59.653179 
L 210.143541 59.86124 
L 196.794258 61.517912 
L 183.444976 64.934877 
L 170.095694 70.830453 
L 167.59177 72.378947 
L 157.725373 86.968421 
L 156.746411 92.159986 
L 155.136693 101.557895 
L 156.063814 116.147368 
" style="fill:none;stroke:#25858e;stroke-width:1.5;"/>
   </g>
   <g id="LineCollection_12">
    <path clip-path="url(#p79b545f3ca)" d="M 154.721651 130.736842 
L 156.746411 136.810743 
L 160.091171 145.326316 
L 168.035299 159.915789 
L 170.095694 163.018461 
L 180.58718 174.505263 
L 183.444976 177.236753 
L 196.794258 185.482384 
L 208.970239 189.094737 
L 210.143541 189.445051 
L 223.492823 189.922548 
L 227.08752 189.094737 
L 236.842105 186.924396 
L 250.191388 180.01109 
L 256.540523 174.505263 
L 263.54067 167.806304 
L 269.278619 159.915789 
L 276.889952 146.90831 
L 277.624114 145.326316 
L 282.961761 130.736842 
L 286.180031 116.147368 
L 287.04651 101.557895 
L 284.59875 86.968421 
L 276.889952 74.080692 
L 275.591747 72.378947 
L 263.54067 65.508909 
L 250.191388 60.910839 
L 236.842105 58.315002 
L 230.667774 57.789474 
L 223.492823 57.445956 
L 210.143541 57.546981 
L 206.235584 57.789474 
L 196.794258 58.870511 
L 183.444976 61.989266 
L 170.095694 67.378599 
L 162.010105 72.378947 
L 156.746411 80.292726 
L 153.123664 86.968421 
L 150.788378 101.557895 
L 151.628998 116.147368 
L 154.721651 130.736842 
" style="fill:none;stroke:#21918c;stroke-width:1.5;"/>
   </g>
   <g id="LineCollection_13">
    <path clip-path="url(#p79b545f3ca)" d="M 154.65523 145.326316 
L 156.746411 150.275566 
L 161.690678 159.915789 
L 170.095694 172.57259 
L 171.860903 174.505263 
L 183.444976 185.577351 
L 189.425675 189.094737 
L 196.794258 193.25071 
L 210.143541 197.012216 
L 223.492823 197.408186 
L 236.842105 194.5168 
L 247.708171 189.094737 
L 250.191388 187.842154 
L 263.54067 176.519705 
L 265.188545 174.505263 
L 275.563028 159.915789 
L 276.889952 157.648127 
L 282.608179 145.326316 
L 287.459236 130.736842 
L 290.239234 116.924773 
L 290.384769 116.147368 
L 291.164156 101.557895 
L 290.239234 95.376369 
L 288.917711 86.968421 
L 280.78691 72.378947 
L 276.889952 69.442607 
L 263.54067 62.368752 
L 250.191388 58.167775 
L 248.212658 57.789474 
L 236.842105 56.608765 
L 223.492823 56.02136 
L 210.143541 56.112283 
L 196.794258 56.889523 
L 189.031395 57.789474 
L 183.444976 59.043654 
L 170.095694 63.926746 
L 156.746411 72.133673 
L 156.4416 72.378947 
L 148.569606 86.968421 
L 146.440063 101.557895 
L 147.194182 116.147368 
L 149.98984 130.736842 
L 154.65523 145.326316 
" style="fill:none;stroke:#1e9b8a;stroke-width:1.5;"/>
   </g>
   <g id="LineCollection_14">
    <path clip-path="url(#p79b545f3ca)" d="M 142.742749 116.147368 
L 143.397129 120.053823 
L 145.258029 130.736842 
L 149.428339 145.326316 
L 155.434401 159.915789 
L 156.746411 162.543772 
L 164.187248 174.505263 
L 170.095694 182.283854 
L 177.398672 189.094737 
L 183.444976 194.219944 
L 196.794258 201.249382 
L 206.407621 203.684211 
L 210.143541 204.666503 
L 223.492823 205.014444 
L 229.745822 203.684211 
L 236.842105 202.263578 
L 250.191388 196.164785 
L 259.209036 189.094737 
L 263.54067 185.479354 
L 272.517814 174.505263 
L 276.889952 168.223203 
L 281.378664 159.915789 
L 287.592244 145.326316 
L 290.239234 136.839331 
L 291.94883 130.736842 
L 294.5679 116.147368 
L 295.275686 101.557895 
L 293.25844 86.968421 
L 290.239234 80.427162 
L 285.885515 72.378947 
L 276.889952 65.600832 
L 263.54067 59.228596 
L 258.907227 57.789474 
L 250.191388 56.370236 
L 236.842105 55.118902 
L 223.492823 54.596765 
L 210.143541 54.677585 
L 196.794258 55.368465 
L 183.444976 56.812408 
L 177.776051 57.789474 
L 170.095694 60.474892 
L 156.746411 67.828117 
L 151.090933 72.378947 
L 144.015547 86.968421 
L 143.397129 91.512417 
L 142.053309 101.557895 
L 142.742749 116.147368 
" style="fill:none;stroke:#21a685;stroke-width:1.5;"/>
   </g>
   <g id="LineCollection_15">
    <path clip-path="url(#p79b545f3ca)" d="M 140.454701 130.736842 
L 143.397129 142.374668 
L 144.201448 145.326316 
L 149.490047 159.915789 
L 156.746411 174.450434 
L 156.780519 174.505263 
L 167.422738 189.094737 
L 170.095694 192.218516 
L 183.444976 203.082768 
L 184.631551 203.684211 
L 196.794258 209.780431 
L 210.143541 212.970135 
L 223.492823 213.246527 
L 236.842105 210.660775 
L 250.191388 204.676644 
L 251.58721 203.684211 
L 263.54067 194.861695 
L 268.76904 189.094737 
L 276.889952 178.931299 
L 279.582101 174.505263 
L 287.068827 159.915789 
L 290.239234 151.993558 
L 292.573888 145.326316 
L 296.425667 130.736842 
L 298.751031 116.147368 
L 299.387215 101.557895 
L 297.608767 86.968421 
L 291.00198 72.378947 
L 290.239234 71.630016 
L 276.889952 61.759057 
L 268.13209 57.789474 
L 263.54067 56.741544 
L 250.191388 54.723956 
L 236.842105 53.629039 
L 223.492823 53.172169 
L 210.143541 53.242887 
L 196.794258 53.847407 
L 183.444976 55.110857 
L 170.095694 57.340932 
L 168.187845 57.789474 
L 156.746411 63.522561 
L 145.740266 72.378947 
L 143.397129 77.285521 
L 139.319353 86.968421 
L 137.576948 101.557895 
L 138.192391 116.147368 
L 140.454701 130.736842 
" style="fill:none;stroke:#2ab07f;stroke-width:1.5;"/>
   </g>
   <g id="LineCollection_16">
    <path clip-path="url(#p79b545f3ca)" d="M 138.862613 145.326316 
L 143.397129 159.497213 
L 143.545693 159.915789 
L 149.837381 174.505263 
L 156.746411 186.609622 
L 158.558023 189.094737 
L 170.095694 202.578364 
L 171.467311 203.684211 
L 183.444976 212.729692 
L 196.10938 218.273684 
L 196.794258 218.577746 
L 210.143541 221.646449 
L 223.492823 221.883758 
L 236.842105 219.324479 
L 239.397888 218.273684 
L 250.191388 213.990345 
L 263.54067 204.624105 
L 264.482264 203.684211 
L 276.889952 189.969452 
L 277.480269 189.094737 
L 286.254608 174.505263 
L 290.239234 166.127928 
L 292.76995 159.915789 
L 297.552787 145.326316 
L 300.902503 130.736842 
L 302.934163 116.147368 
L 303.498745 101.557895 
L 301.959094 86.968421 
L 296.222831 72.378947 
L 290.239234 66.503716 
L 276.889952 57.917282 
L 276.607977 57.789474 
L 263.54067 54.807038 
L 250.191388 53.077677 
L 236.842105 52.139177 
L 223.492823 51.747574 
L 210.143541 51.808189 
L 196.794258 52.326349 
L 183.444976 53.409306 
L 170.095694 55.320799 
L 159.595315 57.789474 
L 156.746411 59.217006 
L 143.397129 69.099445 
L 140.247358 72.378947 
L 134.600825 86.968421 
L 133.100588 101.557895 
L 133.642033 116.147368 
L 135.605015 130.736842 
L 138.862613 145.326316 
" style="fill:none;stroke:#3bbb75;stroke-width:1.5;"/>
   </g>
   <g id="LineCollection_17">
    <path clip-path="url(#p79b545f3ca)" d="M 128.957498 116.147368 
L 130.047847 124.758572 
L 130.75533 130.736842 
L 133.503419 145.326316 
L 137.445866 159.915789 
L 142.881747 174.505263 
L 143.397129 175.698885 
L 150.130024 189.094737 
L 156.746411 199.384465 
L 160.367325 203.684211 
L 170.095694 213.818818 
L 176.477439 218.273684 
L 183.444976 222.943944 
L 196.794258 228.419251 
L 210.143541 230.98159 
L 223.492823 231.156491 
L 236.842105 228.973781 
L 250.191388 223.974928 
L 259.086907 218.273684 
L 263.54067 215.368285 
L 275.245875 203.684211 
L 276.889952 201.86694 
L 285.509496 189.094737 
L 290.239234 180.430356 
L 292.9564 174.505263 
L 298.484863 159.915789 
L 302.531687 145.326316 
L 303.588517 140.268534 
L 305.595049 130.736842 
L 307.527647 116.147368 
L 308.079575 101.557895 
L 306.647597 86.968421 
L 303.588517 78.162831 
L 301.443682 72.378947 
L 290.239234 61.377417 
L 284.633178 57.789474 
L 276.889952 55.425682 
L 263.54067 52.872532 
L 250.191388 51.431397 
L 236.842105 50.649314 
L 223.492823 50.322978 
L 210.143541 50.373491 
L 196.794258 50.805291 
L 183.444976 51.707755 
L 170.095694 53.300666 
L 156.746411 56.069028 
L 151.193323 57.789474 
L 143.397129 63.264914 
L 134.643633 72.378947 
L 130.047847 86.369892 
L 129.858036 86.968421 
L 128.423427 101.557895 
L 128.957498 116.147368 
" style="fill:none;stroke:#52c569;stroke-width:1.5;"/>
   </g>
   <g id="LineCollection_18">
    <path clip-path="url(#p79b545f3ca)" d="M 127.866341 145.326316 
L 130.047847 154.462284 
L 131.342053 159.915789 
L 135.737834 174.505263 
L 141.762767 189.094737 
L 143.397129 192.4527 
L 149.913877 203.684211 
L 156.746411 213.151207 
L 161.72466 218.273684 
L 170.095694 226.015232 
L 181.538681 232.863158 
L 183.444976 233.984444 
L 196.794258 239.068184 
L 210.143541 241.437473 
L 223.492823 241.581141 
L 236.842105 239.517019 
L 250.191388 234.796244 
L 253.584837 232.863158 
L 263.54067 227.195405 
L 273.476505 218.273684 
L 276.889952 214.942954 
L 285.298838 203.684211 
L 290.239234 195.692317 
L 293.598765 189.094737 
L 299.701603 174.505263 
L 303.588517 162.199827 
L 304.282928 159.915789 
L 308.010316 145.326316 
L 310.611132 130.736842 
L 312.197225 116.147368 
L 312.67088 101.557895 
L 311.538617 86.968421 
L 307.103923 72.378947 
L 303.588517 67.799166 
L 292.762194 57.789474 
L 290.239234 56.771317 
L 276.889952 52.980546 
L 263.54067 50.938025 
L 250.191388 49.785118 
L 236.842105 49.159451 
L 223.492823 48.898382 
L 210.143541 48.938792 
L 196.794258 49.284232 
L 183.444976 50.006204 
L 170.095694 51.280533 
L 156.746411 53.495223 
L 143.397129 57.568396 
L 142.85313 57.789474 
L 130.047847 70.767625 
L 128.878415 72.378947 
L 124.448003 86.968421 
L 123.315681 101.557895 
L 123.768604 116.147368 
L 125.316018 130.736842 
L 127.866341 145.326316 
" style="fill:none;stroke:#69cd5b;stroke-width:1.5;"/>
   </g>
   <g id="LineCollection_19">
    <path clip-path="url(#p79b545f3ca)" d="M 128.366856 174.505263 
L 130.047847 179.733373 
L 133.176751 189.094737 
L 139.541891 203.684211 
L 143.397129 210.731092 
L 148.448543 218.273684 
L 156.746411 228.46993 
L 161.725123 232.863158 
L 170.095694 239.656185 
L 183.444976 246.512804 
L 186.443856 247.452632 
L 196.794258 250.91269 
L 210.143541 253.03254 
L 223.492823 253.145315 
L 236.842105 251.260134 
L 248.769932 247.452632 
L 250.191388 247.03254 
L 263.54067 240.50145 
L 273.128841 232.863158 
L 276.889952 229.664144 
L 286.364916 218.273684 
L 290.239234 212.74536 
L 295.353772 203.684211 
L 301.774102 189.094737 
L 303.588517 184.080011 
L 306.863086 174.505263 
L 310.775259 159.915789 
L 313.623601 145.326316 
L 315.627216 130.736842 
L 316.866804 116.147368 
L 316.937799 113.56379 
L 317.373393 101.557895 
L 316.937799 95.652513 
L 316.429637 86.968421 
L 313.070539 72.378947 
L 303.588517 60.026011 
L 301.169514 57.789474 
L 290.239234 53.378487 
L 276.889952 50.535409 
L 263.54067 49.003519 
L 250.191388 48.138838 
L 236.842105 47.669588 
L 223.492823 47.473787 
L 210.143541 47.504094 
L 196.794258 47.763174 
L 183.444976 48.304653 
L 170.095694 49.260399 
L 156.746411 50.921417 
L 143.397129 53.976297 
L 134.014161 57.789474 
L 130.047847 61.809332 
L 122.376855 72.378947 
L 119.037971 86.968421 
L 118.207934 101.557895 
L 118.57971 116.147368 
L 119.775998 130.736842 
L 121.72483 145.326316 
L 124.513654 159.915789 
L 128.366856 174.505263 
" style="fill:none;stroke:#86d549;stroke-width:1.5;"/>
   </g>
   <g id="LineCollection_20">
    <path clip-path="url(#p79b545f3ca)" d="M 115.148792 145.326316 
L 116.698565 154.327914 
L 117.490278 159.915789 
L 120.107255 174.505263 
L 123.703501 189.094737 
L 128.740787 203.684211 
L 130.047847 206.881214 
L 135.125285 218.273684 
L 143.397129 231.65231 
L 144.343647 232.863158 
L 156.746411 246.219957 
L 158.412947 247.452632 
L 170.095694 255.614077 
L 183.444976 261.15793 
L 186.956203 262.042105 
L 196.794258 264.786555 
L 210.143541 266.553674 
L 223.492823 266.636993 
L 236.842105 265.040099 
L 247.994298 262.042105 
L 250.191388 261.51368 
L 263.54067 256.164361 
L 276.137237 247.452632 
L 276.889952 246.908635 
L 290.085594 232.863158 
L 290.239234 232.672318 
L 299.313122 218.273684 
L 303.588517 209.072769 
L 305.863154 203.684211 
L 310.941395 189.094737 
L 314.590659 174.505263 
L 316.937799 162.006147 
L 317.397122 159.915789 
L 320.1048 145.326316 
L 321.989006 130.736842 
L 323.149982 116.147368 
L 323.538711 101.557895 
L 322.823262 86.968421 
L 319.788837 72.378947 
L 316.937799 67.183674 
L 310.639588 57.789474 
L 303.588517 53.958111 
L 290.239234 49.985658 
L 276.889952 48.090273 
L 263.54067 47.069013 
L 250.191388 46.492559 
L 236.842105 46.179726 
L 223.492823 46.049191 
L 210.143541 46.069396 
L 196.794258 46.242116 
L 183.444976 46.603102 
L 170.095694 47.240266 
L 156.746411 48.347611 
L 143.397129 50.384198 
L 130.047847 54.63703 
L 124.263373 57.789474 
L 116.698565 70.199273 
L 115.567317 72.378947 
L 112.511955 86.968421 
L 111.788 101.557895 
L 112.163089 116.147368 
L 113.300391 130.736842 
L 115.148792 145.326316 
" style="fill:none;stroke:#a5db36;stroke-width:1.5;"/>
   </g>
   <g id="LineCollection_21">
    <path clip-path="url(#p79b545f3ca)" d="M 116.161093 203.684211 
L 116.698565 205.505932 
L 120.07203 218.273684 
L 125.750124 232.863158 
L 130.047847 240.916721 
L 134.13504 247.452632 
L 143.397129 258.677496 
L 147.300089 262.042105 
L 156.746411 269.366309 
L 170.095694 275.618709 
L 173.442342 276.631579 
L 183.444976 280.0229 
L 196.794258 282.646077 
L 210.143541 283.847485 
L 223.492823 283.900155 
L 236.842105 282.804833 
L 250.191388 280.290031 
L 261.102212 276.631579 
L 263.54067 275.905698 
L 276.889952 269.760088 
L 286.827469 262.042105 
L 290.239234 259.117566 
L 299.879627 247.452632 
L 303.588517 241.594331 
L 308.292952 232.863158 
L 313.97422 218.273684 
L 316.937799 207.504814 
L 318.105655 203.684211 
L 321.858348 189.094737 
L 324.516054 174.505263 
L 326.439464 159.915789 
L 327.837124 145.326316 
L 328.826752 130.736842 
L 329.458073 116.147368 
L 329.704029 101.557895 
L 329.391103 86.968421 
L 327.89182 72.378947 
L 321.988004 57.789474 
L 316.937799 53.897844 
L 303.588517 48.579056 
L 290.239234 46.592829 
L 276.889952 45.645136 
L 263.54067 45.134506 
L 250.191388 44.846279 
L 236.842105 44.689863 
L 223.492823 44.624596 
L 210.143541 44.634698 
L 196.794258 44.721058 
L 183.444976 44.901551 
L 170.095694 45.220133 
L 156.746411 45.773806 
L 143.397129 46.792099 
L 130.047847 48.918515 
L 116.698565 54.606387 
L 112.568125 57.789474 
L 106.633593 72.378947 
L 105.135709 86.968421 
L 104.81766 101.557895 
L 105.048249 116.147368 
L 105.655602 130.736842 
L 106.614392 145.326316 
L 107.975175 159.915789 
L 109.855722 174.505263 
L 112.464249 189.094737 
L 116.161093 203.684211 
" style="fill:none;stroke:#c2df23;stroke-width:1.5;"/>
   </g>
   <g id="LineCollection_22">
    <path clip-path="url(#p79b545f3ca)" d="M 90 305.810526 
L 103.349282 304.448504 
L 104.563039 305.810526 
L 103.349282 320.4 
L 90 305.810526 
" style="fill:none;stroke:#e2e418;stroke-width:1.5;"/>
    <path clip-path="url(#p79b545f3ca)" d="M 328.818652 305.810526 
L 330.287081 304.136978 
L 343.636364 305.810526 
L 330.287081 320.4 
L 328.818652 305.810526 
" style="fill:none;stroke:#e2e418;stroke-width:1.5;"/>
   </g>
   <g id="LineCollection_23"/>
   <g id="patch_3">
    <path d="M 90 320.4 
L 90 43.2 
" style="fill:none;stroke:#000000;stroke-linecap:square;stroke-linejoin:miter;stroke-width:0.8;"/>
   </g>
   <g id="patch_4">
    <path d="M 343.636364 320.4 
L 343.636364 43.2 
" style="fill:none;stroke:#000000;stroke-linecap:square;stroke-linejoin:miter;stroke-width:0.8;"/>
   </g>
   <g id="patch_5">
    <path d="M 90 320.4 
L 343.636364 320.4 
" style="fill:none;stroke:#000000;stroke-linecap:square;stroke-linejoin:miter;stroke-width:0.8;"/>
   </g>
   <g id="patch_6">
    <path d="M 90 43.2 
L 343.636364 43.2 
" style="fill:none;stroke:#000000;stroke-linecap:square;stroke-linejoin:miter;stroke-width:0.8;"/>
   </g>
   <g id="text_13">
    <!-- Stream function -->
    <g transform="translate(168.696307 37.2)scale(0.12 -0.12)">
     <defs>
      <path d="M 53.515625 70.515625 
L 53.515625 60.890625 
Q 47.90625 63.578125 42.921875 64.890625 
Q 37.9375 66.21875 33.296875 66.21875 
Q 25.25 66.21875 20.875 63.09375 
Q 16.5 59.96875 16.5 54.203125 
Q 16.5 49.359375 19.40625 46.890625 
Q 22.3125 44.4375 30.421875 42.921875 
L 36.375 41.703125 
Q 47.40625 39.59375 52.65625 34.296875 
Q 57.90625 29 57.90625 20.125 
Q 57.90625 9.515625 50.796875 4.046875 
Q 43.703125 -1.421875 29.984375 -1.421875 
Q 24.8125 -1.421875 18.96875 -0.25 
Q 13.140625 0.921875 6.890625 3.21875 
L 6.890625 13.375 
Q 12.890625 10.015625 18.65625 8.296875 
Q 24.421875 6.59375 29.984375 6.59375 
Q 38.421875 6.59375 43.015625 9.90625 
Q 47.609375 13.234375 47.609375 19.390625 
Q 47.609375 24.75 44.3125 27.78125 
Q 41.015625 30.8125 33.5 32.328125 
L 27.484375 33.5 
Q 16.453125 35.6875 11.515625 40.375 
Q 6.59375 45.0625 6.59375 53.421875 
Q 6.59375 63.09375 13.40625 68.65625 
Q 20.21875 74.21875 32.171875 74.21875 
Q 37.3125 74.21875 42.625 73.28125 
Q 47.953125 72.359375 53.515625 70.515625 
z
" id="DejaVuSans-83"/>
      <path d="M 18.3125 70.21875 
L 18.3125 54.6875 
L 36.8125 54.6875 
L 36.8125 47.703125 
L 18.3125 47.703125 
L 18.3125 18.015625 
Q 18.3125 11.328125 20.140625 9.421875 
Q 21.96875 7.515625 27.59375 7.515625 
L 36.8125 7.515625 
L 36.8125 0 
L 27.59375 0 
Q 17.1875 0 13.234375 3.875 
Q 9.28125 7.765625 9.28125 18.015625 
L 9.28125 47.703125 
L 2.6875 47.703125 
L 2.6875 54.6875 
L 9.28125 54.6875 
L 9.28125 70.21875 
z
" id="DejaVuSans-116"/>
      <path d="M 41.109375 46.296875 
Q 39.59375 47.171875 37.8125 47.578125 
Q 36.03125 48 33.890625 48 
Q 26.265625 48 22.1875 43.046875 
Q 18.109375 38.09375 18.109375 28.8125 
L 18.109375 0 
L 9.078125 0 
L 9.078125 54.6875 
L 18.109375 54.6875 
L 18.109375 46.1875 
Q 20.953125 51.171875 25.484375 53.578125 
Q 30.03125 56 36.53125 56 
Q 37.453125 56 38.578125 55.875 
Q 39.703125 55.765625 41.0625 55.515625 
z
" id="DejaVuSans-114"/>
      <path d="M 56.203125 29.59375 
L 56.203125 25.203125 
L 14.890625 25.203125 
Q 15.484375 15.921875 20.484375 11.0625 
Q 25.484375 6.203125 34.421875 6.203125 
Q 39.59375 6.203125 44.453125 7.46875 
Q 49.3125 8.734375 54.109375 11.28125 
L 54.109375 2.78125 
Q 49.265625 0.734375 44.1875 -0.34375 
Q 39.109375 -1.421875 33.890625 -1.421875 
Q 20.796875 -1.421875 13.15625 6.1875 
Q 5.515625 13.8125 5.515625 26.8125 
Q 5.515625 40.234375 12.765625 48.109375 
Q 20.015625 56 32.328125 56 
Q 43.359375 56 49.78125 48.890625 
Q 56.203125 41.796875 56.203125 29.59375 
z
M 47.21875 32.234375 
Q 47.125 39.59375 43.09375 43.984375 
Q 39.0625 48.390625 32.421875 48.390625 
Q 24.90625 48.390625 20.390625 44.140625 
Q 15.875 39.890625 15.1875 32.171875 
z
" id="DejaVuSans-101"/>
      <path d="M 34.28125 27.484375 
Q 23.390625 27.484375 19.1875 25 
Q 14.984375 22.515625 14.984375 16.5 
Q 14.984375 11.71875 18.140625 8.90625 
Q 21.296875 6.109375 26.703125 6.109375 
Q 34.1875 6.109375 38.703125 11.40625 
Q 43.21875 16.703125 43.21875 25.484375 
L 43.21875 27.484375 
z
M 52.203125 31.203125 
L 52.203125 0 
L 43.21875 0 
L 43.21875 8.296875 
Q 40.140625 3.328125 35.546875 0.953125 
Q 30.953125 -1.421875 24.3125 -1.421875 
Q 15.921875 -1.421875 10.953125 3.296875 
Q 6 8.015625 6 15.921875 
Q 6 25.140625 12.171875 29.828125 
Q 18.359375 34.515625 30.609375 34.515625 
L 43.21875 34.515625 
L 43.21875 35.40625 
Q 43.21875 41.609375 39.140625 45 
Q 35.0625 48.390625 27.6875 48.390625 
Q 23 48.390625 18.546875 47.265625 
Q 14.109375 46.140625 10.015625 43.890625 
L 10.015625 52.203125 
Q 14.9375 54.109375 19.578125 55.046875 
Q 24.21875 56 28.609375 56 
Q 40.484375 56 46.34375 49.84375 
Q 52.203125 43.703125 52.203125 31.203125 
z
" id="DejaVuSans-97"/>
      <path d="M 52 44.1875 
Q 55.375 50.25 60.0625 53.125 
Q 64.75 56 71.09375 56 
Q 79.640625 56 84.28125 50.015625 
Q 88.921875 44.046875 88.921875 33.015625 
L 88.921875 0 
L 79.890625 0 
L 79.890625 32.71875 
Q 79.890625 40.578125 77.09375 44.375 
Q 74.3125 48.1875 68.609375 48.1875 
Q 61.625 48.1875 57.5625 43.546875 
Q 53.515625 38.921875 53.515625 30.90625 
L 53.515625 0 
L 44.484375 0 
L 44.484375 32.71875 
Q 44.484375 40.625 41.703125 44.40625 
Q 38.921875 48.1875 33.109375 48.1875 
Q 26.21875 48.1875 22.15625 43.53125 
Q 18.109375 38.875 18.109375 30.90625 
L 18.109375 0 
L 9.078125 0 
L 9.078125 54.6875 
L 18.109375 54.6875 
L 18.109375 46.1875 
Q 21.1875 51.21875 25.484375 53.609375 
Q 29.78125 56 35.6875 56 
Q 41.65625 56 45.828125 52.96875 
Q 50 49.953125 52 44.1875 
z
" id="DejaVuSans-109"/>
      <path id="DejaVuSans-32"/>
      <path d="M 37.109375 75.984375 
L 37.109375 68.5 
L 28.515625 68.5 
Q 23.6875 68.5 21.796875 66.546875 
Q 19.921875 64.59375 19.921875 59.515625 
L 19.921875 54.6875 
L 34.71875 54.6875 
L 34.71875 47.703125 
L 19.921875 47.703125 
L 19.921875 0 
L 10.890625 0 
L 10.890625 47.703125 
L 2.296875 47.703125 
L 2.296875 54.6875 
L 10.890625 54.6875 
L 10.890625 58.5 
Q 10.890625 67.625 15.140625 71.796875 
Q 19.390625 75.984375 28.609375 75.984375 
z
" id="DejaVuSans-102"/>
      <path d="M 8.5 21.578125 
L 8.5 54.6875 
L 17.484375 54.6875 
L 17.484375 21.921875 
Q 17.484375 14.15625 20.5 10.265625 
Q 23.53125 6.390625 29.59375 6.390625 
Q 36.859375 6.390625 41.078125 11.03125 
Q 45.3125 15.671875 45.3125 23.6875 
L 45.3125 54.6875 
L 54.296875 54.6875 
L 54.296875 0 
L 45.3125 0 
L 45.3125 8.40625 
Q 42.046875 3.421875 37.71875 1 
Q 33.40625 -1.421875 27.6875 -1.421875 
Q 18.265625 -1.421875 13.375 4.4375 
Q 8.5 10.296875 8.5 21.578125 
z
M 31.109375 56 
z
" id="DejaVuSans-117"/>
      <path d="M 54.890625 33.015625 
L 54.890625 0 
L 45.90625 0 
L 45.90625 32.71875 
Q 45.90625 40.484375 42.875 44.328125 
Q 39.84375 48.1875 33.796875 48.1875 
Q 26.515625 48.1875 22.3125 43.546875 
Q 18.109375 38.921875 18.109375 30.90625 
L 18.109375 0 
L 9.078125 0 
L 9.078125 54.6875 
L 18.109375 54.6875 
L 18.109375 46.1875 
Q 21.34375 51.125 25.703125 53.5625 
Q 30.078125 56 35.796875 56 
Q 45.21875 56 50.046875 50.171875 
Q 54.890625 44.34375 54.890625 33.015625 
z
" id="DejaVuSans-110"/>
      <path d="M 48.78125 52.59375 
L 48.78125 44.1875 
Q 44.96875 46.296875 41.140625 47.34375 
Q 37.3125 48.390625 33.40625 48.390625 
Q 24.65625 48.390625 19.8125 42.84375 
Q 14.984375 37.3125 14.984375 27.296875 
Q 14.984375 17.28125 19.8125 11.734375 
Q 24.65625 6.203125 33.40625 6.203125 
Q 37.3125 6.203125 41.140625 7.25 
Q 44.96875 8.296875 48.78125 10.40625 
L 48.78125 2.09375 
Q 45.015625 0.34375 40.984375 -0.53125 
Q 36.96875 -1.421875 32.421875 -1.421875 
Q 20.0625 -1.421875 12.78125 6.34375 
Q 5.515625 14.109375 5.515625 27.296875 
Q 5.515625 40.671875 12.859375 48.328125 
Q 20.21875 56 33.015625 56 
Q 37.15625 56 41.109375 55.140625 
Q 45.0625 54.296875 48.78125 52.59375 
z
" id="DejaVuSans-99"/>
      <path d="M 9.421875 54.6875 
L 18.40625 54.6875 
L 18.40625 0 
L 9.421875 0 
z
M 9.421875 75.984375 
L 18.40625 75.984375 
L 18.40625 64.59375 
L 9.421875 64.59375 
z
" id="DejaVuSans-105"/>
      <path d="M 30.609375 48.390625 
Q 23.390625 48.390625 19.1875 42.75 
Q 14.984375 37.109375 14.984375 27.296875 
Q 14.984375 17.484375 19.15625 11.84375 
Q 23.34375 6.203125 30.609375 6.203125 
Q 37.796875 6.203125 41.984375 11.859375 
Q 46.1875 17.53125 46.1875 27.296875 
Q 46.1875 37.015625 41.984375 42.703125 
Q 37.796875 48.390625 30.609375 48.390625 
z
M 30.609375 56 
Q 42.328125 56 49.015625 48.375 
Q 55.71875 40.765625 55.71875 27.296875 
Q 55.71875 13.875 49.015625 6.21875 
Q 42.328125 -1.421875 30.609375 -1.421875 
Q 18.84375 -1.421875 12.171875 6.21875 
Q 5.515625 13.875 5.515625 27.296875 
Q 5.515625 40.765625 12.171875 48.375 
Q 18.84375 56 30.609375 56 
z
" id="DejaVuSans-111"/>
     </defs>
     <use xlink:href="#DejaVuSans-83"/>
     <use x="63.476562" xlink:href="#DejaVuSans-116"/>
     <use x="102.685547" xlink:href="#DejaVuSans-114"/>
     <use x="141.548828" xlink:href="#DejaVuSans-101"/>
     <use x="203.072266" xlink:href="#DejaVuSans-97"/>
     <use x="264.351562" xlink:href="#DejaVuSans-109"/>
     <use x="361.763672" xlink:href="#DejaVuSans-32"/>
     <use x="393.550781" xlink:href="#DejaVuSans-102"/>
     <use x="428.755859" xlink:href="#DejaVuSans-117"/>
     <use x="492.134766" xlink:href="#DejaVuSans-110"/>
     <use x="555.513672" xlink:href="#DejaVuSans-99"/>
     <use x="610.494141" xlink:href="#DejaVuSans-116"/>
     <use x="649.703125" xlink:href="#DejaVuSans-105"/>
     <use x="677.486328" xlink:href="#DejaVuSans-111"/>
     <use x="738.667969" xlink:href="#DejaVuSans-110"/>
    </g>
   </g>
  </g>
  <g id="axes_2">
   <g id="patch_7">
    <path d="M 394.363636 320.4 
L 648 320.4 
L 648 43.2 
L 394.363636 43.2 
z
" style="fill:#ffffff;"/>
   </g>
   <g id="matplotlib.axis_3">
    <g id="xtick_7">
     <g id="line2d_13">
      <g>
       <use style="stroke:#000000;stroke-width:0.8;" x="394.363636" xlink:href="#m3dd6ddd9a1" y="320.4"/>
      </g>
     </g>
     <g id="text_14">
      <!-- 0.0 -->
      <g transform="translate(386.412074 334.998438)scale(0.1 -0.1)">
       <use xlink:href="#DejaVuSans-48"/>
       <use x="63.623047" xlink:href="#DejaVuSans-46"/>
       <use x="95.410156" xlink:href="#DejaVuSans-48"/>
      </g>
     </g>
    </g>
    <g id="xtick_8">
     <g id="line2d_14">
      <g>
       <use style="stroke:#000000;stroke-width:0.8;" x="445.090909" xlink:href="#m3dd6ddd9a1" y="320.4"/>
      </g>
     </g>
     <g id="text_15">
      <!-- 0.2 -->
      <g transform="translate(437.139347 334.998438)scale(0.1 -0.1)">
       <use xlink:href="#DejaVuSans-48"/>
       <use x="63.623047" xlink:href="#DejaVuSans-46"/>
       <use x="95.410156" xlink:href="#DejaVuSans-50"/>
      </g>
     </g>
    </g>
    <g id="xtick_9">
     <g id="line2d_15">
      <g>
       <use style="stroke:#000000;stroke-width:0.8;" x="495.818182" xlink:href="#m3dd6ddd9a1" y="320.4"/>
      </g>
     </g>
     <g id="text_16">
      <!-- 0.4 -->
      <g transform="translate(487.866619 334.998438)scale(0.1 -0.1)">
       <use xlink:href="#DejaVuSans-48"/>
       <use x="63.623047" xlink:href="#DejaVuSans-46"/>
       <use x="95.410156" xlink:href="#DejaVuSans-52"/>
      </g>
     </g>
    </g>
    <g id="xtick_10">
     <g id="line2d_16">
      <g>
       <use style="stroke:#000000;stroke-width:0.8;" x="546.545455" xlink:href="#m3dd6ddd9a1" y="320.4"/>
      </g>
     </g>
     <g id="text_17">
      <!-- 0.6 -->
      <g transform="translate(538.593892 334.998438)scale(0.1 -0.1)">
       <use xlink:href="#DejaVuSans-48"/>
       <use x="63.623047" xlink:href="#DejaVuSans-46"/>
       <use x="95.410156" xlink:href="#DejaVuSans-54"/>
      </g>
     </g>
    </g>
    <g id="xtick_11">
     <g id="line2d_17">
      <g>
       <use style="stroke:#000000;stroke-width:0.8;" x="597.272727" xlink:href="#m3dd6ddd9a1" y="320.4"/>
      </g>
     </g>
     <g id="text_18">
      <!-- 0.8 -->
      <g transform="translate(589.321165 334.998438)scale(0.1 -0.1)">
       <use xlink:href="#DejaVuSans-48"/>
       <use x="63.623047" xlink:href="#DejaVuSans-46"/>
       <use x="95.410156" xlink:href="#DejaVuSans-56"/>
      </g>
     </g>
    </g>
    <g id="xtick_12">
     <g id="line2d_18">
      <g>
       <use style="stroke:#000000;stroke-width:0.8;" x="648" xlink:href="#m3dd6ddd9a1" y="320.4"/>
      </g>
     </g>
     <g id="text_19">
      <!-- 1.0 -->
      <g transform="translate(640.048437 334.998438)scale(0.1 -0.1)">
       <use xlink:href="#DejaVuSans-49"/>
       <use x="63.623047" xlink:href="#DejaVuSans-46"/>
       <use x="95.410156" xlink:href="#DejaVuSans-48"/>
      </g>
     </g>
    </g>
   </g>
   <g id="matplotlib.axis_4">
    <g id="ytick_7">
     <g id="line2d_19">
      <g>
       <use style="stroke:#000000;stroke-width:0.8;" x="394.363636" xlink:href="#m8a7e8ebb68" y="320.4"/>
      </g>
     </g>
     <g id="text_20">
      <!-- 0.0 -->
      <g transform="translate(371.460511 324.199219)scale(0.1 -0.1)">
       <use xlink:href="#DejaVuSans-48"/>
       <use x="63.623047" xlink:href="#DejaVuSans-46"/>
       <use x="95.410156" xlink:href="#DejaVuSans-48"/>
      </g>
     </g>
    </g>
    <g id="ytick_8">
     <g id="line2d_20">
      <g>
       <use style="stroke:#000000;stroke-width:0.8;" x="394.363636" xlink:href="#m8a7e8ebb68" y="264.96"/>
      </g>
     </g>
     <g id="text_21">
      <!-- 0.2 -->
      <g transform="translate(371.460511 268.759219)scale(0.1 -0.1)">
       <use xlink:href="#DejaVuSans-48"/>
       <use x="63.623047" xlink:href="#DejaVuSans-46"/>
       <use x="95.410156" xlink:href="#DejaVuSans-50"/>
      </g>
     </g>
    </g>
    <g id="ytick_9">
     <g id="line2d_21">
      <g>
       <use style="stroke:#000000;stroke-width:0.8;" x="394.363636" xlink:href="#m8a7e8ebb68" y="209.52"/>
      </g>
     </g>
     <g id="text_22">
      <!-- 0.4 -->
      <g transform="translate(371.460511 213.319219)scale(0.1 -0.1)">
       <use xlink:href="#DejaVuSans-48"/>
       <use x="63.623047" xlink:href="#DejaVuSans-46"/>
       <use x="95.410156" xlink:href="#DejaVuSans-52"/>
      </g>
     </g>
    </g>
    <g id="ytick_10">
     <g id="line2d_22">
      <g>
       <use style="stroke:#000000;stroke-width:0.8;" x="394.363636" xlink:href="#m8a7e8ebb68" y="154.08"/>
      </g>
     </g>
     <g id="text_23">
      <!-- 0.6 -->
      <g transform="translate(371.460511 157.879219)scale(0.1 -0.1)">
       <use xlink:href="#DejaVuSans-48"/>
       <use x="63.623047" xlink:href="#DejaVuSans-46"/>
       <use x="95.410156" xlink:href="#DejaVuSans-54"/>
      </g>
     </g>
    </g>
    <g id="ytick_11">
     <g id="line2d_23">
      <g>
       <use style="stroke:#000000;stroke-width:0.8;" x="394.363636" xlink:href="#m8a7e8ebb68" y="98.64"/>
      </g>
     </g>
     <g id="text_24">
      <!-- 0.8 -->
      <g transform="translate(371.460511 102.439219)scale(0.1 -0.1)">
       <use xlink:href="#DejaVuSans-48"/>
       <use x="63.623047" xlink:href="#DejaVuSans-46"/>
       <use x="95.410156" xlink:href="#DejaVuSans-56"/>
      </g>
     </g>
    </g>
    <g id="ytick_12">
     <g id="line2d_24">
      <g>
       <use style="stroke:#000000;stroke-width:0.8;" x="394.363636" xlink:href="#m8a7e8ebb68" y="43.2"/>
      </g>
     </g>
     <g id="text_25">
      <!-- 1.0 -->
      <g transform="translate(371.460511 46.999219)scale(0.1 -0.1)">
       <use xlink:href="#DejaVuSans-49"/>
       <use x="63.623047" xlink:href="#DejaVuSans-46"/>
       <use x="95.410156" xlink:href="#DejaVuSans-48"/>
      </g>
     </g>
    </g>
   </g>
   <g id="LineCollection_24"/>
   <g id="LineCollection_25">
    <path clip-path="url(#pf757015725)" d="M 511.424567 43.2 
L 514.507177 43.788464 
L 518.745806 43.2 
" style="fill:none;stroke:#471365;stroke-width:1.5;"/>
   </g>
   <g id="LineCollection_26">
    <path clip-path="url(#pf757015725)" d="M 496.883391 43.2 
L 501.157895 45.299704 
L 514.507177 47.911985 
L 527.856459 46.471706 
L 534.382056 43.2 
" style="fill:none;stroke:#482374;stroke-width:1.5;"/>
   </g>
   <g id="LineCollection_27">
    <path clip-path="url(#pf757015725)" d="M 488.736911 43.2 
L 501.157895 49.301386 
L 514.507177 52.035507 
L 527.856459 51.191038 
L 541.205742 44.86263 
L 542.894795 43.2 
" style="fill:none;stroke:#46327e;stroke-width:1.5;"/>
   </g>
   <g id="LineCollection_28">
    <path clip-path="url(#pf757015725)" d="M 482.992228 43.2 
L 487.808612 47.039939 
L 501.157895 53.303067 
L 514.507177 56.159028 
L 527.856459 55.91037 
L 541.205742 50.906888 
L 549.035114 43.2 
" style="fill:none;stroke:#424086;stroke-width:1.5;"/>
   </g>
   <g id="LineCollection_29">
    <path clip-path="url(#pf757015725)" d="M 477.556429 43.2 
L 487.808612 51.373715 
L 501.157895 57.304748 
L 503.386005 57.789474 
L 514.507177 61.106602 
L 527.856459 61.300592 
L 538.705467 57.789474 
L 541.205742 56.951147 
L 554.555024 44.101048 
L 555.065497 43.2 
" style="fill:none;stroke:#3d4e8a;stroke-width:1.5;"/>
   </g>
   <g id="LineCollection_30">
    <path clip-path="url(#pf757015725)" d="M 472.498559 43.2 
L 474.45933 45.493021 
L 487.808612 55.707491 
L 492.526639 57.789474 
L 501.157895 62.715451 
L 514.507177 66.593098 
L 527.856459 67.134677 
L 541.205742 63.609796 
L 549.440503 57.789474 
L 554.555024 53.018907 
L 560.117753 43.2 
" style="fill:none;stroke:#365c8d;stroke-width:1.5;"/>
   </g>
   <g id="LineCollection_31">
    <path clip-path="url(#pf757015725)" d="M 467.941172 43.2 
L 474.45933 50.82265 
L 484.011671 57.789474 
L 487.808612 61.03258 
L 501.157895 68.320352 
L 514.507177 72.079593 
L 519.186373 72.378947 
L 527.856459 73.119222 
L 531.240807 72.378947 
L 541.205742 70.367383 
L 554.555024 61.797664 
L 557.848986 57.789474 
L 565.17001 43.2 
" style="fill:none;stroke:#31688e;stroke-width:1.5;"/>
   </g>
   <g id="LineCollection_32">
    <path clip-path="url(#pf757015725)" d="M 463.383785 43.2 
L 474.45933 56.152279 
L 476.704118 57.789474 
L 487.808612 67.274228 
L 497.790653 72.378947 
L 501.157895 74.470896 
L 514.507177 79.186856 
L 527.856459 80.441564 
L 541.205742 77.991046 
L 551.286638 72.378947 
L 554.555024 70.416416 
L 564.931944 57.789474 
L 567.904306 50.819821 
L 570.10488 43.2 
" style="fill:none;stroke:#2c738e;stroke-width:1.5;"/>
   </g>
   <g id="LineCollection_33">
    <path clip-path="url(#pf757015725)" d="M 458.851859 43.2 
L 461.110048 47.075076 
L 470.009264 57.789474 
L 474.45933 63.087869 
L 486.068081 72.378947 
L 487.808612 73.937869 
L 501.157895 82.053589 
L 514.507177 86.387654 
L 520.195035 86.968421 
L 527.856459 87.964934 
L 534.104534 86.968421 
L 541.205742 85.981789 
L 554.555024 79.64621 
L 562.084206 72.378947 
L 567.904306 64.98112 
L 571.52416 57.789474 
L 574.901279 43.2 
" style="fill:none;stroke:#277f8e;stroke-width:1.5;"/>
   </g>
   <g id="LineCollection_34">
    <path clip-path="url(#pf757015725)" d="M 454.345284 43.2 
L 461.110048 54.808408 
L 463.586076 57.789474 
L 474.45933 70.735529 
L 476.512702 72.378947 
L 487.808612 82.496224 
L 495.786426 86.968421 
L 501.157895 90.465112 
L 514.507177 95.492138 
L 527.856459 97.137711 
L 541.205742 95.423622 
L 554.555024 89.369632 
L 557.432316 86.968421 
L 567.904306 77.236228 
L 571.148641 72.378947 
L 577.76152 57.789474 
L 579.697678 43.2 
" style="fill:none;stroke:#238a8d;stroke-width:1.5;"/>
   </g>
   <g id="LineCollection_35">
    <path clip-path="url(#pf757015725)" d="M 449.838708 43.2 
L 457.186485 57.789474 
L 461.110048 64.213001 
L 467.768071 72.378947 
L 474.45933 80.533048 
L 481.998979 86.968421 
L 487.808612 92.359871 
L 501.157895 100.403533 
L 504.514662 101.557895 
L 514.507177 105.621593 
L 527.856459 107.485089 
L 541.205742 105.84096 
L 551.119596 101.557895 
L 554.555024 100.192458 
L 567.904306 89.471865 
L 569.861361 86.968421 
L 579.198871 72.378947 
L 581.253589 67.023879 
L 584.010756 57.789474 
L 584.746768 43.2 
" style="fill:none;stroke:#1f968b;stroke-width:1.5;"/>
   </g>
   <g id="LineCollection_36">
    <path clip-path="url(#pf757015725)" d="M 444.910194 43.2 
L 447.760766 50.94478 
L 450.801697 57.789474 
L 459.29179 72.378947 
L 461.110048 75.348601 
L 470.352689 86.968421 
L 474.45933 92.145086 
L 484.986001 101.557895 
L 487.808612 104.251015 
L 501.157895 112.807583 
L 510.70743 116.147368 
L 514.507177 117.68878 
L 527.856459 119.606018 
L 541.205742 117.940892 
L 545.472667 116.147368 
L 554.555024 112.764657 
L 567.904306 102.608182 
L 568.790335 101.557895 
L 580.027134 86.968421 
L 581.253589 84.934521 
L 586.874408 72.378947 
L 590.275097 57.789474 
L 589.917188 43.2 
" style="fill:none;stroke:#1fa187;stroke-width:1.5;"/>
   </g>
   <g id="LineCollection_37">
    <path clip-path="url(#pf757015725)" d="M 439.620669 43.2 
L 444.034997 57.789474 
L 447.760766 66.174444 
L 450.981329 72.378947 
L 459.638965 86.968421 
L 461.110048 89.47089 
L 470.356974 101.557895 
L 474.45933 106.946946 
L 484.396276 116.147368 
L 487.808612 119.475234 
L 501.157895 128.007556 
L 509.082395 130.736842 
L 514.507177 132.886113 
L 527.856459 134.625017 
L 541.205742 132.822013 
L 546.06875 130.736842 
L 554.555024 127.592503 
L 567.904306 117.746467 
L 569.279412 116.147368 
L 581.253589 101.688484 
L 581.32882 101.557895 
L 589.15422 86.968421 
L 594.421535 72.378947 
L 594.602871 71.3268 
L 596.803743 57.789474 
L 595.215813 43.2 
" style="fill:none;stroke:#26ad81;stroke-width:1.5;"/>
   </g>
   <g id="LineCollection_38">
    <path clip-path="url(#pf757015725)" d="M 434.289865 43.2 
L 434.411483 43.802239 
L 436.920983 57.789474 
L 442.463326 72.378947 
L 447.760766 83.917829 
L 449.416071 86.968421 
L 457.378444 101.557895 
L 461.110048 108.348873 
L 466.785089 116.147368 
L 474.45933 126.680172 
L 478.726151 130.736842 
L 487.808612 139.748103 
L 497.017234 145.326316 
L 501.157895 148.070707 
L 514.507177 152.933045 
L 527.856459 154.225302 
L 541.205742 152.225937 
L 554.555024 146.279402 
L 555.757477 145.326316 
L 567.904306 136.62564 
L 572.866664 130.736842 
L 581.253589 120.850288 
L 583.968165 116.147368 
L 591.950561 101.557895 
L 594.602871 95.894448 
L 597.959266 86.968421 
L 602.166917 72.378947 
L 603.923047 57.789474 
L 601.753743 43.2 
" style="fill:none;stroke:#35b779;stroke-width:1.5;"/>
   </g>
   <g id="LineCollection_39">
    <path clip-path="url(#pf757015725)" d="M 426.282487 43.2 
L 428.651956 57.789474 
L 433.769387 72.378947 
L 434.411483 74.170285 
L 439.359064 86.968421 
L 445.30001 101.557895 
L 447.760766 108.03737 
L 451.657567 116.147368 
L 458.658871 130.736842 
L 461.110048 135.994001 
L 467.165223 145.326316 
L 474.45933 156.210746 
L 478.221261 159.915789 
L 487.808612 169.63487 
L 496.156249 174.505263 
L 501.157895 177.702404 
L 514.507177 182.037355 
L 527.856459 182.805557 
L 541.205742 180.217687 
L 552.43955 174.505263 
L 554.555024 173.600496 
L 567.904306 162.903124 
L 570.163594 159.915789 
L 581.253589 145.679656 
L 581.435114 145.326316 
L 589.472795 130.736842 
L 594.602871 120.698576 
L 596.306623 116.147368 
L 601.785957 101.557895 
L 606.487661 86.968421 
L 607.952153 81.077244 
L 610.060417 72.378947 
L 611.917356 57.789474 
L 608.528512 43.2 
" style="fill:none;stroke:#4ac16d;stroke-width:1.5;"/>
   </g>
   <g id="LineCollection_40">
    <path clip-path="url(#pf757015725)" d="M 394.363636 43.2 
" style="fill:none;stroke:#65cb5e;stroke-width:1.5;"/>
    <path clip-path="url(#pf757015725)" d="M 412.139955 320.4 
L 407.712919 317.237711 
L 397.289971 305.810526 
L 394.363636 300.679077 
" style="fill:none;stroke:#65cb5e;stroke-width:1.5;"/>
    <path clip-path="url(#pf757015725)" d="M 413.032627 43.2 
L 419.303847 57.789474 
L 421.062201 61.962946 
L 424.47418 72.378947 
L 429.433454 86.968421 
L 433.842826 101.557895 
L 434.411483 103.935038 
L 438.028866 116.147368 
L 441.936647 130.736842 
L 445.620935 145.326316 
L 447.760766 154.65975 
L 449.424969 159.915789 
L 453.647519 174.505263 
L 458.292412 189.094737 
L 461.110048 197.517827 
L 464.321775 203.684211 
L 473.094899 218.273684 
L 474.45933 220.291663 
L 487.808612 231.328433 
L 491.586175 232.863158 
L 501.157895 236.803498 
L 514.507177 239.153678 
L 527.856459 239.215411 
L 541.205742 236.923432 
L 550.721872 232.863158 
L 554.555024 231.301644 
L 567.904306 219.877106 
L 568.94187 218.273684 
L 577.941835 203.684211 
L 581.253589 197.983954 
L 584.502923 189.094737 
L 589.811807 174.505263 
L 594.602871 160.688059 
L 594.787328 159.915789 
L 599.019669 145.326316 
L 603.188088 130.736842 
L 607.326201 116.147368 
L 607.952153 114.139417 
L 611.085902 101.557895 
L 614.794409 86.968421 
L 618.375625 72.378947 
L 621.052524 57.789474 
L 619.62711 43.2 
" style="fill:none;stroke:#65cb5e;stroke-width:1.5;"/>
    <path clip-path="url(#pf757015725)" d="M 648 299.992264 
L 644.887559 305.810526 
L 634.650718 317.05247 
L 629.796266 320.4 
" style="fill:none;stroke:#65cb5e;stroke-width:1.5;"/>
    <path clip-path="url(#pf757015725)" d="M 648 43.2 
" style="fill:none;stroke:#65cb5e;stroke-width:1.5;"/>
   </g>
   <g id="LineCollection_41">
    <path clip-path="url(#pf757015725)" d="M 394.363636 50.496474 
L 407.31786 57.789474 
L 407.712919 58.350526 
L 415.005861 72.378947 
L 419.70101 86.968421 
L 421.062201 93.354036 
L 423.107487 101.557895 
L 425.589973 116.147368 
L 427.108915 130.736842 
L 427.664562 145.326316 
L 427.135409 159.915789 
L 425.217717 174.505263 
L 421.299492 189.094737 
L 421.062201 189.744109 
L 414.302407 203.684211 
L 407.712919 212.20927 
L 399.927469 218.273684 
L 394.363636 221.77779 
" style="fill:none;stroke:#81d34d;stroke-width:1.5;"/>
    <path clip-path="url(#pf757015725)" d="M 648 222.034503 
L 640.597916 218.273684 
L 634.650718 214.738677 
L 625.064082 203.684211 
L 621.301435 196.936032 
L 618.305345 189.094737 
L 615.098715 174.505263 
L 613.9567 159.915789 
L 614.178925 145.326316 
L 615.370702 130.736842 
L 617.311337 116.147368 
L 619.890474 101.557895 
L 621.301435 95.282257 
L 622.92685 86.968421 
L 626.799002 72.378947 
L 633.342588 57.789474 
L 634.650718 55.683037 
L 648 50.041538 
" style="fill:none;stroke:#81d34d;stroke-width:1.5;"/>
   </g>
   <g id="LineCollection_42">
    <path clip-path="url(#pf757015725)" d="M 394.363636 57.794553 
L 405.734545 72.378947 
L 407.712919 78.758968 
L 410.521996 86.968421 
L 413.208607 101.557895 
L 414.247547 116.147368 
L 413.80635 130.736842 
L 411.740877 145.326316 
L 407.712919 159.627581 
L 407.617261 159.915789 
L 400.747287 174.505263 
L 394.363636 183.453789 
" style="fill:none;stroke:#a0da39;stroke-width:1.5;"/>
    <path clip-path="url(#pf757015725)" d="M 648 186.327063 
L 638.346438 174.505263 
L 634.650718 167.751905 
L 631.528205 159.915789 
L 627.996112 145.326316 
L 626.569797 130.736842 
L 626.649605 116.147368 
L 627.962696 101.557895 
L 630.583059 86.968421 
L 634.650718 74.169347 
L 635.190364 72.378947 
L 646.277598 57.789474 
L 648 56.883076 
" style="fill:none;stroke:#a0da39;stroke-width:1.5;"/>
   </g>
   <g id="LineCollection_43">
    <path clip-path="url(#pf757015725)" d="M 394.363636 68.463607 
L 397.416281 72.378947 
L 402.306608 86.968421 
L 404.087057 101.557895 
L 403.87804 116.147368 
L 401.731021 130.736842 
L 397.245126 145.326316 
L 394.363636 151.635797 
" style="fill:none;stroke:#c0df25;stroke-width:1.5;"/>
    <path clip-path="url(#pf757015725)" d="M 648 159.003365 
L 641.02973 145.326316 
L 637.052791 130.736842 
L 635.489775 116.147368 
L 635.720787 101.557895 
L 637.668691 86.968421 
L 642.451536 72.378947 
L 648 65.546435 
" style="fill:none;stroke:#c0df25;stroke-width:1.5;"/>
   </g>
   <g id="LineCollection_44">
    <path clip-path="url(#pf757015725)" d="M 394.363636 86.530704 
L 394.516169 86.968421 
L 395.723899 101.557895 
L 394.363636 115.361903 
" style="fill:none;stroke:#dfe318;stroke-width:1.5;"/>
    <path clip-path="url(#pf757015725)" d="M 648 133.628046 
L 646.898635 130.736842 
L 643.440482 116.147368 
L 642.541746 101.557895 
L 644.107569 86.968421 
L 648 76.473761 
" style="fill:none;stroke:#dfe318;stroke-width:1.5;"/>
   </g>
   <g id="LineCollection_45"/>
   <g id="patch_8">
    <path d="M 394.363636 320.4 
L 394.363636 43.2 
" style="fill:none;stroke:#000000;stroke-linecap:square;stroke-linejoin:miter;stroke-width:0.8;"/>
   </g>
   <g id="patch_9">
    <path d="M 648 320.4 
L 648 43.2 
" style="fill:none;stroke:#000000;stroke-linecap:square;stroke-linejoin:miter;stroke-width:0.8;"/>
   </g>
   <g id="patch_10">
    <path d="M 394.363636 320.4 
L 648 320.4 
" style="fill:none;stroke:#000000;stroke-linecap:square;stroke-linejoin:miter;stroke-width:0.8;"/>
   </g>
   <g id="patch_11">
    <path d="M 394.363636 43.2 
L 648 43.2 
" style="fill:none;stroke:#000000;stroke-linecap:square;stroke-linejoin:miter;stroke-width:0.8;"/>
   </g>
   <g id="text_26">
    <!-- Vorticity -->
    <g transform="translate(496.516193 37.2)scale(0.12 -0.12)">
     <defs>
      <path d="M 28.609375 0 
L 0.78125 72.90625 
L 11.078125 72.90625 
L 34.1875 11.53125 
L 57.328125 72.90625 
L 67.578125 72.90625 
L 39.796875 0 
z
" id="DejaVuSans-86"/>
      <path d="M 32.171875 -5.078125 
Q 28.375 -14.84375 24.75 -17.8125 
Q 21.140625 -20.796875 15.09375 -20.796875 
L 7.90625 -20.796875 
L 7.90625 -13.28125 
L 13.1875 -13.28125 
Q 16.890625 -13.28125 18.9375 -11.515625 
Q 21 -9.765625 23.484375 -3.21875 
L 25.09375 0.875 
L 2.984375 54.6875 
L 12.5 54.6875 
L 29.59375 11.921875 
L 46.6875 54.6875 
L 56.203125 54.6875 
z
" id="DejaVuSans-121"/>
     </defs>
     <use xlink:href="#DejaVuSans-86"/>
     <use x="60.658203" xlink:href="#DejaVuSans-111"/>
     <use x="121.839844" xlink:href="#DejaVuSans-114"/>
     <use x="162.953125" xlink:href="#DejaVuSans-116"/>
     <use x="202.162109" xlink:href="#DejaVuSans-105"/>
     <use x="229.945312" xlink:href="#DejaVuSans-99"/>
     <use x="284.925781" xlink:href="#DejaVuSans-105"/>
     <use x="312.708984" xlink:href="#DejaVuSans-116"/>
     <use x="351.917969" xlink:href="#DejaVuSans-121"/>
    </g>
   </g>
  </g>
 </g>
 <defs>
  <clipPath id="p79b545f3ca">
   <rect height="277.2" width="253.636364" x="90" y="43.2"/>
  </clipPath>
  <clipPath id="pf757015725">
   <rect height="277.2" width="253.636364" x="394.363636" y="43.2"/>
  </clipPath>
 </defs>
</svg>
